<?xml version="1.0" encoding="UTF-8"?>
<svg xmlns="http://www.w3.org/2000/svg" xmlns:xlink="http://www.w3.org/1999/xlink" width="40px" height="40px" viewBox="0 0 40 40" version="1.1">
<g id="surface1">
<path style=" stroke:none;fill-rule:evenodd;fill:rgb(98.431373%,73.72549%,1.960784%);fill-opacity:1;" d="M 8.605469 20 C 8.605469 18.730469 8.816406 17.511719 9.195312 16.371094 L 2.601562 11.335938 C 1.320312 13.945312 0.59375 16.882812 0.59375 20 C 0.59375 23.113281 1.316406 26.050781 2.601562 28.65625 L 9.1875 23.613281 C 8.8125 22.476562 8.605469 21.265625 8.605469 20 "/>
<path style=" stroke:none;fill-rule:evenodd;fill:rgb(92.156863%,26.27451%,20.784314%);fill-opacity:1;" d="M 20.179688 8.445312 C 22.9375 8.445312 25.429688 9.421875 27.386719 11.023438 L 33.085938 5.332031 C 29.613281 2.3125 25.164062 0.445312 20.179688 0.445312 C 12.4375 0.445312 5.789062 4.871094 2.601562 11.335938 L 9.195312 16.371094 C 10.710938 11.761719 15.039062 8.445312 20.179688 8.445312 "/>
<path style=" stroke:none;fill-rule:evenodd;fill:rgb(20.392157%,65.882353%,32.54902%);fill-opacity:1;" d="M 20.179688 31.554688 C 15.039062 31.554688 10.710938 28.238281 9.195312 23.628906 L 2.601562 28.664062 C 5.789062 35.128906 12.4375 39.554688 20.179688 39.554688 C 24.953125 39.554688 29.515625 37.859375 32.9375 34.683594 L 26.679688 29.84375 C 24.917969 30.957031 22.695312 31.554688 20.179688 31.554688 "/>
<path style=" stroke:none;fill-rule:evenodd;fill:rgb(25.882353%,52.156863%,95.686275%);fill-opacity:1;" d="M 38.871094 20 C 38.871094 18.84375 38.691406 17.601562 38.425781 16.445312 L 20.179688 16.445312 L 20.179688 24 L 30.683594 24 C 30.15625 26.574219 28.726562 28.554688 26.679688 29.84375 L 32.9375 34.683594 C 36.53125 31.34375 38.871094 26.375 38.871094 20 "/>
</g>
</svg>
